# AST/ASF file generated using VICON BodyLanguage
# -----------------------------------------------
:version 1.10
:name VICON
:units
  mass 1.0
  length 0.45
  angle deg
:documentation
   .ast/.asf automatically generated from VICON data using
   VICON BodyBuilder and BodyLanguage model FoxedUp or BRILLIANT.MOD
:root
   order TX TY TZ RX RY RZ
   axis XYZ
   position 0 0 0  
   orientation 0 0 0 
:bonedata
  begin
     id 1 
     name lhipjoint
     direction 0.661853 -0.702389 0.261917 
     length 2.64193 
     axis 0 0 0  XYZ
  end
  begin
     id 2 
     name lfemur
     direction 0.34202 -0.939693 0  
     length 7.01722  
     axis 0 0 20  XYZ
    dof rx ry rz
    limits (-160.0 20.0)
           (-70.0 70.0)
           (-60.0 70.0)
  end
  begin
     id 3 
     name ltibia
     direction 0.34202 -0.939693 0   
     length 8.25008   
     axis 0 0 20   XYZ
    dof rx
    limits (-10.0 170.0)
  end
  begin
     id 4 
     name lfoot
     direction 0.0709916 -0.195048 0.978221   
     length 2.31941   
     axis -90 7.62852e-016 20   XYZ
    dof rx rz
    limits (-45.0 90.0)
           (-70.0 20.0)
  end
  begin
     id 5 
     name ltoes
     direction 1.53586e-011 -4.22017e-011 1   
     length 1.16486   
     axis -90 7.62852e-016 20   XYZ
    dof rx
    limits (-90.0 20.0)
  end
  begin
     id 6 
     name rhipjoint
     direction -0.638185 -0.721362 0.268992   
     length 2.57244  
     axis 0 0 0  XYZ 
  end
  begin
     id 7 
     name rfemur
     direction -0.34202 -0.939693 0   
     length 7.07017   
     axis 0 0 -20   XYZ
    dof rx ry rz
    limits (-160.0 20.0)
           (-70.0 70.0)
           (-70.0 60.0)
  end
  begin
     id 8 
     name rtibia
     direction -0.34202 -0.939693 0   
     length 8.20386   
     axis 0 0 -20   XYZ
    dof rx
    limits (-10.0 170.0)
 end
 begin
     id 9 
     name rfoot
     direction -0.0822429 -0.225961 0.970658   
     length 2.32215  
     axis -90 -7.62852e-016 -20   XYZ
    dof rx rz
    limits (-45.0 90.0)
           (-20.0 70.0)
  end
  begin
     id 10 
     name rtoes
     direction -1.53597e-011 -4.21689e-011 1   
     length 1.16333   
     axis -90 -7.62852e-016 -20   XYZ
    dof rx
    limits (-90.0 20.0)
  end
  begin
     id 11 
     name lowerback
     direction -0.0131557 0.998589 -0.0514484   
     length 2.14993   
     axis 0 0 0   XYZ
    dof rx ry rz
    limits (-20.0 45.0)
           (-30.0 30.0)
           (-30.0 30.0)
  end
  begin
     id 12 
     name upperback
     direction -0.000776481 0.999993 0.00352685   
     length 2.15301   
     axis 0 0 0   XYZ
    dof rx ry rz
    limits (-20.0 45.0)
           (-30.0 30.0)
           (-30.0 30.0)
  end
  begin
     id 13 
     name thorax
     direction 0.00438186 0.999609 0.0276143   
     length 2.15424   
     axis 0 0 0   XYZ
    dof rx ry rz
    limits (-20.0 45.0)
           (-30.0 30.0)
           (-30.0 30.0)
  end
  begin
     id 14 
     name lowerneck
     direction -0.0488006 0.998094 0.0377807   
     length 1.90481   
     axis 0 0 0   XYZ
    dof rx ry rz
    limits (-20.0 45.0)
           (-30.0 30.0)
           (-30.0 30.0)
  end
  begin
     id 15 
     name upperneck
     direction 0.0443769 0.990702 -0.12861   
     length 1.91305   
     axis 0 0 0   XYZ
    dof rx ry rz
    limits (-20.0 45.0)
           (-30.0 30.0)
           (-30.0 30.0)
  end
  begin
     id 16
     name head
     direction 0.0165599 0.998647 -0.0492982  
     length 1.92369  
     axis 0 0 0   XYZ
    dof rx ry rz
    limits (-20.0 45.0)
           (-30.0 30.0)
           (-30.0 30.0)
  end
  begin
     id 17 
     name lclavicle
     direction 0.911936 0.410197 -0.0105506  
     length 3.52622  
     axis 0 0 0   XYZ
    dof ry rz
    limits (-20.0 10.0)
           (0.0 20.0)
  end
  begin
     id 18 
     name lhumerus
     direction 1 -4.48974e-011 -2.48591e-028   
     length 5.47651   
     axis 180 -30 -90   XYZ
    dof rx ry rz
    limits (-60.0 90.0)
           (-90.0 90.0)
           (-90.0 90.0)
  end
  begin
     id 19
     name lradius
     direction 1 -4.48938e-011 -4.40099e-027   
     length 3.09058   
     axis 180 -30 -90   XYZ
    dof rx
    limits (-10.0 170.0)
  end
  begin
     id 20
     name lwrist
     direction 1 -4.49042e-011 -2.99852e-027   
     length 1.54529   
     axis 1.95339e-015 90 90   XYZ
    dof ry
    limits (-180.0 0.0)
 end
  begin
     id 21 
     name lhand
     direction 1 -4.48815e-011 -5.98193e-027   
     length 0.771611   
     axis 3.82337e-015 90 90   XYZ
    dof rx rz
    limits (-90.0 90.0)
           (-45.0 45.0)
  end
  begin
     id 22 
     name lfingers
     direction 1 -4.49034e-011 -1.1993e-026   
     length 0.622093   
     axis 7.64668e-015 90 90   XYZ
    dof rx
    limits (0.0 90.0)
  end
  begin
     id 23
     name lthumb
     direction 0.707107 -6.34867e-011 0.707107   
     length 0.893204   
     axis -90 45 -1.62303e-014   XYZ
    dof rx rz
    limits (-45.0 45.0)
           (-45.0 45.0)
  end
  begin
     id 24 
     name rclavicle
     direction -0.93442 0.355634 -0.0195692   
     length 3.62463  
     axis 0 0 0   XYZ 
    dof ry rz
    limits (-10.0 20.0)
           (-20.0 0.0)
  end
  begin
     id 25 
     name rhumerus
     direction -1 -4.48957e-011 -1.19147e-027  
     length 5.14182   
     axis 180 30 90   XYZ
    dof rx ry rz
    limits (-90.0 60.0)
           (-90.0 90.0)
           (-90.0 90.0)
  end
  begin
     id 26 
     name rradius
     direction -1 -4.48952e-011 -3.81062e-027   
     length 3.35565   
     axis 180 30 90   XYZ
    dof rx
    limits (-10.0 170.0)
  end
  begin
     id 27 
     name rwrist
     direction -1 -4.48973e-011 -2.99621e-027   
     length 1.67782   
     axis 1.95339e-015 -90 -90   XYZ
    dof ry
    limits (-180.0 0.0)
  end
  begin
     id 28
     name rhand
     direction -1 -4.48895e-011 -5.98727e-027   
     length 0.801042   
     axis 3.82337e-015 -90 -90   XYZ
    dof rx rz
    limits (-90.0 90.0)
           (-45.0 45.0)
  end
  begin
     id 29
     name rfingers
     direction -1 -4.49065e-011 -1.19972e-026   
     length 0.645821   
     axis 7.64668e-015 -90 -90   XYZ
    dof rx
    limits (0.0 90.0)
  end
  begin
     id 30
     name rthumb
     direction -0.707107 -6.34957e-011 0.707107   
     length 0.927273   
     axis -90 -45 1.62303e-014   XYZ
    dof rx rz
    limits (-45.0 45.0)
           (-45.0 45.0)
  end
:hierarchy
  begin
    root lhipjoint rhipjoint lowerback
    lhipjoint lfemur
    lfemur ltibia
    ltibia lfoot
    lfoot ltoes
    rhipjoint rfemur
    rfemur rtibia
    rtibia rfoot
    rfoot rtoes
    lowerback upperback
    upperback thorax
    thorax lowerneck lclavicle rclavicle
    lowerneck upperneck
    upperneck head
    lclavicle lhumerus
    lhumerus lradius
    lradius lwrist
    lwrist lhand lthumb
    lhand lfingers
    rclavicle rhumerus
    rhumerus rradius
    rradius rwrist
    rwrist rhand rthumb
    rhand rfingers
  end

#!OML:ASF E:\Style4\Style4.ASF
:FULLY-SPECIFIED
:DEGREES
212
root -0.0172525 18.0905 -0.712734 3.62378 -2.54512 2.65718
lowerback 2.57248 1.80431 -2.11477
upperback -1.00789 2.30887 -0.938515
thorax -2.52149 1.17771 0.110853
lowerneck -0.562732 -3.90976 -6.68224
upperneck 6.05288 -5.33872 4.97926
head 2.39332 -2.69742 2.66204
rclavicle -1.12717e-014 1.51822e-014
rhumerus -80.8075 57.3767 -114.099
rradius 85.1833
rwrist -7.80486
rhand 1.98009 28.2824
rfingers 7.12502
rthumb 27.4856 0.268228
lclavicle -1.12717e-014 1.51822e-014
lhumerus -78.1538 -59.9587 107.042
lradius 94.4679
lwrist -3.05731
lhand -2.90669 9.32059
lfingers 7.12502
lthumb 22.8035 37.9927
rfemur -5.26833 4.99047 15.3512
rtibia 19.4454
rfoot -16.5782 -16.398
rtoes -11.4359
lfemur -0.110174 -3.96375 -22.5967
ltibia 12.0799
lfoot -15.9719 12.7843
ltoes -13.2819
213
root -0.0213244 18.0952 -0.714757 3.77612 -2.54108 2.65452
lowerback 2.49008 1.81554 -2.17937
upperback -1.11539 2.322 -0.940026
thorax -2.58864 1.1864 0.145119
lowerneck -0.593828 -3.92106 -6.5879
upperneck 5.93057 -5.34921 4.94435
head 2.35383 -2.70029 2.63196
rclavicle 3.21503e-014 1.2424e-015
rhumerus -80.4177 57.4399 -113.549
rradius 85.1976
rwrist -7.15799
rhand 1.08665 27.2327
rfingers 7.12502
rthumb 26.6308 -0.91434
lclavicle 3.21503e-014 1.2424e-015
lhumerus -77.0639 -59.9588 105.775
lradius 94.4966
lwrist -3.24637
lhand -3.22492 10.058
lfingers 7.12502
lthumb 22.4981 38.7674
rfemur -5.37189 5.06214 15.3591
rtibia 19.3234
rfoot -16.5216 -16.4482
rtoes -11.3975
lfemur -0.25003 -3.94264 -22.5589
ltibia 12.0067
lfoot -15.891 12.7204
ltoes -13.1888
214
root -0.023276 18.0975 -0.720517 3.88303 -2.46008 2.65931
lowerback 2.48757 1.8017 -2.20934
upperback -1.20266 2.30081 -0.944181
thorax -2.67773 1.17744 0.156712
lowerneck -0.685729 -3.93799 -6.5639
upperneck 5.89593 -5.3658 4.93724
head 2.35895 -2.70688 2.62313
rclavicle -1.76639e-014 1.14301e-014
rhumerus -79.8341 57.4695 -112.782
rradius 85.219
rwrist -6.2882
rhand 0.30517 26.3925
rfingers 7.12502
rthumb 25.8826 -1.86593
lclavicle -1.76639e-014 1.14301e-014
lhumerus -75.7699 -59.934 104.337
lradius 94.5188
lwrist -3.23788
lhand -3.60459 10.8637
lfingers 7.12502
lthumb 22.1336 39.6168
rfemur -5.43485 5.08837 15.3633
rtibia 19.2299
rfoot -16.4393 -16.541
rtoes -11.3008
lfemur -0.310006 -3.92794 -22.5303
ltibia 11.8459
lfoot -15.7822 12.655
ltoes -13.2078
215
root -0.0243586 18.1011 -0.725984 3.96669 -2.38364 2.66512
lowerback 2.49422 1.76738 -2.23836
upperback -1.27512 2.25248 -0.940574
thorax -2.75645 1.15487 0.177155
lowerneck -0.695542 -3.93001 -6.53605
upperneck 5.78534 -5.35113 4.91559
head 2.32101 -2.6988 2.61105
rclavicle -1.61823e-015 1.02623e-014
rhumerus -79.194 57.5435 -111.972
rradius 85.2378
rwrist -5.37688
rhand -0.11675 25.7458
rfingers 7.12502
rthumb 25.4785 -2.57101
lclavicle -1.61823e-015 1.02623e-014
lhumerus -74.0604 -59.7075 102.466
lradius 94.6414
lwrist -2.8997
lhand -3.37482 11.8237
lfingers 7.12502
lthumb 22.3542 40.5504
rfemur -5.45752 5.1052 15.3628
rtibia 19.095
rfoot -16.3867 -16.6102
rtoes -11.3186
lfemur -0.36086 -3.99925 -22.5147
ltibia 11.7231
lfoot -15.7291 12.683
ltoes -13.1656
216
root -0.0252761 18.107 -0.732605 4.0609 -2.28797 2.7016
lowerback 2.5099 1.72344 -2.2954
upperback -1.3581 2.18945 -0.948441
thorax -2.85141 1.12561 0.201754
lowerneck -0.675802 -3.90964 -6.46394
upperneck 5.65174 -5.32153 4.88248
head 2.26699 -2.68283 2.58789
rclavicle -2.00749e-014 1.03617e-014
rhumerus -78.5464 57.6322 -111.19
rradius 85.2597
rwrist -4.56455
rhand -0.459331 24.9816
rfingers 7.12502
rthumb 25.1503 -3.3816
lclavicle -2.00749e-014 1.03617e-014
lhumerus -72.3968 -59.4097 100.601
lradius 94.7751
lwrist -2.71352
lhand -3.20041 12.88
lfingers 7.12502
lthumb 22.5216 41.5865
rfemur -5.50471 5.12465 15.3283
rtibia 18.9611
rfoot -16.3256 -16.716
rtoes -11.2879
lfemur -0.444067 -4.09905 -22.5272
ltibia 11.6024
lfoot -15.657 12.7132
ltoes -13.2205
217
root -0.0277167 18.1127 -0.742102 4.12404 -2.10217 2.62838
lowerback 2.59668 1.66227 -2.23793
upperback -1.4231 2.10659 -0.928225
thorax -2.96409 1.08459 0.190543
lowerneck -0.712475 -3.91005 -6.43122
upperneck 5.55984 -5.31908 4.89447
head 2.24224 -2.67981 2.58551
rclavicle -1.87541e-014 1.73937e-016
rhumerus -77.7647 57.6702 -110.276
rradius 85.3256
rwrist -3.74964
rhand -0.576237 24.1787
rfingers 7.12502
rthumb 25.0383 -4.20023
lclavicle -1.87541e-014 1.73937e-016
lhumerus -70.8029 -59.1465 98.8167
lradius 94.8403
lwrist -2.5783
lhand -4.2157 13.8174
lfingers 7.12502
lthumb 21.5468 42.6388
rfemur -5.50312 5.12808 15.4409
rtibia 18.8378
rfoot -16.258 -16.9221
rtoes -11.3107
lfemur -0.485142 -4.21365 -22.3985
ltibia 11.4425
lfoot -15.5557 12.655
ltoes -12.9919
218
root -0.0291121 18.1165 -0.750712 4.19218 -1.89936 2.66437
lowerback 2.6407 1.61814 -2.28424
upperback -1.47752 2.04311 -0.941696
thorax -3.04492 1.05463 0.203436
lowerneck -0.786448 -3.95625 -6.48814
upperneck 5.51358 -5.37875 4.98068
head 2.24982 -2.70784 2.62225
rclavicle 8.12688e-015 -4.17448e-015
rhumerus -76.7947 57.5607 -109.132
rradius 85.3918
rwrist -2.80995
rhand -0.668066 23.1488
rfingers 7.12502
rthumb 24.9503 -5.24233
lclavicle 8.12688e-015 -4.17448e-015
lhumerus -69.0541 -58.8891 96.9277
lradius 94.9437
lwrist -2.50401
lhand -5.76065 14.8798
lfingers 7.12502
lthumb 20.0624 43.864
rfemur -5.48337 5.03728 15.4145
rtibia 18.7003
rfoot -16.25 -16.9751
rtoes -10.8403
lfemur -0.529018 -4.3397 -22.4006
ltibia 11.2797
lfoot -15.3574 12.5688
ltoes -12.8219
219
root -0.0282913 18.1205 -0.761178 4.26856 -1.91063 2.73892
lowerback 2.70227 1.63625 -2.36753
upperback -1.55242 2.05966 -0.970038
thorax -3.15936 1.06556 0.216367
lowerneck -0.77871 -3.98798 -6.53967
upperneck 5.40434 -5.42092 5.04502
head 2.21951 -2.72824 2.65258
rclavicle -3.62495e-014 -2.01269e-015
rhumerus -75.8013 57.3971 -107.99
rradius 85.4696
rwrist -1.90539
rhand -1.2206 21.8186
rfingers 7.12502
rthumb 24.4208 -6.64494
lclavicle -3.62495e-014 -2.01269e-015
lhumerus -67.3878 -58.5131 95.1054
lradius 95.1051
lwrist -2.50753
lhand -6.70271 16.1246
lfingers 7.12502
lthumb 19.1567 45.2012
rfemur -5.50753 5.00754 15.308
rtibia 18.5228
rfoot -16.1211 -16.9306
rtoes -10.7881
lfemur -0.594577 -4.32938 -22.4761
ltibia 11.1673
lfoot -15.2012 12.555
ltoes -12.8371
220
root -0.0265433 18.1232 -0.771423 4.21691 -2.20437 2.68593
lowerback 2.88725 1.71903 -2.35457
upperback -1.59751 2.16432 -0.949252
thorax -3.31298 1.11895 0.217415
lowerneck -0.685139 -3.97917 -6.41969
upperneck 5.25036 -5.40789 4.94099
head 2.14191 -2.72191 2.5974
rclavicle -1.03011e-014 2.73329e-015
rhumerus -74.8674 57.3187 -106.905
rradius 85.5816
rwrist -1.00608
rhand -1.97232 20.318
rfingers 7.12502
rthumb 23.6999 -8.24086
lclavicle -1.03011e-014 2.73329e-015
lhumerus -65.9231 -58.0696 93.5012
lradius 95.2801
lwrist -2.61728
lhand -7.28934 17.623
lfingers 7.12502
lthumb 18.5925 46.7545
rfemur -5.46844 5.1636 15.3221
rtibia 18.3731
rfoot -15.9735 -16.7904
rtoes -10.9772
lfemur -0.455493 -4.20172 -22.4568
ltibia 10.991
lfoot -15.2038 12.7423
ltoes -13.1101
221
root -0.0253644 18.124 -0.774971 4.08401 -2.43902 2.55959
lowerback 3.07145 1.77458 -2.2806
upperback -1.59504 2.23749 -0.896342
thorax -3.41518 1.15495 0.219881
lowerneck -0.655834 -3.95155 -6.31597
upperneck 5.2067 -5.36945 4.85451
head 2.11236 -2.70257 2.55077
rclavicle -1.35903e-014 -8.17502e-015
rhumerus -73.784 57.2168 -105.69
rradius 85.6639
rwrist -0.080572
rhand -2.325 18.8633
rfingers 7.12502
rthumb 23.3616 -9.73899
lclavicle -1.35903e-014 -8.17502e-015
lhumerus -64.454 -57.5269 91.8855
lradius 95.4421
lwrist -3.03569
lhand -7.8914 19.236
lfingers 7.12502
lthumb 18.0133 48.4218
rfemur -5.29242 5.33878 15.4494
rtibia 18.2145
rfoot -15.8376 -16.7476
rtoes -11.3754
lfemur -0.203668 -4.10489 -22.3528
ltibia 10.8219
lfoot -15.2447 12.8956
ltoes -13.1162
222
root -0.0239975 18.1262 -0.776357 4.01856 -2.53697 2.5294
lowerback 3.142 1.80273 -2.25093
upperback -1.58965 2.27437 -0.893916
thorax -3.44915 1.17281 0.201188
lowerneck -0.759827 -3.9491 -6.32479
upperneck 5.32934 -5.36448 4.87582
head 2.17258 -2.69909 2.55777
rclavicle -1.89878e-014 3.57812e-015
rhumerus -72.5335 56.9852 -104.346
rradius 85.7381
rwrist 0.835345
rhand -2.69926 17.4453
rfingers 7.12502
rthumb 23.0026 -11.2021
lclavicle -1.89878e-014 3.57812e-015
lhumerus -62.9874 -57.0444 90.3162
lradius 95.6198
lwrist -3.61332
lhand -8.49609 20.5521
lfingers 7.12502
lthumb 17.4314 49.7905
rfemur -5.14982 5.42815 15.4744
rtibia 18.0298
rfoot -15.7315 -16.7273
rtoes -11.3276
lfemur -0.0510879 -4.02163 -22.3357
ltibia 10.6834
lfoot -15.1542 12.8873
ltoes -12.9898
223
root -0.0230082 18.1307 -0.781583 4.10885 -2.55519 2.5499
lowerback 3.09522 1.81354 -2.27075
upperback -1.62989 2.28807 -0.910967
thorax -3.46477 1.18027 0.194551
lowerneck -0.820168 -3.95582 -6.32712
upperneck 5.41561 -5.374 4.90608
head 2.21399 -2.70288 2.56699
rclavicle -9.96563e-015 9.6659e-015
rhumerus -71.2964 56.6469 -103.002
rradius 85.7881
rwrist 1.72418
rhand -3.44929 16.2459
rfingers 7.12502
rthumb 22.2827 -12.4894
lclavicle -9.96563e-015 9.6659e-015
lhumerus -61.5484 -56.6203 88.8363
lradius 95.8602
lwrist -4.14396
lhand -8.98347 21.5906
lfingers 7.12502
lthumb 16.9623 50.87
rfemur -5.17527 5.44712 15.4306
rtibia 17.8444
rfoot -15.6858 -16.6878
rtoes -10.9046
lfemur -0.104175 -3.98431 -22.3507
ltibia 10.559
lfoot -15.0422 12.8298
ltoes -12.6558
224
root -0.0233631 18.1357 -0.791461 4.24189 -2.42919 2.54826
lowerback 3.04911 1.79333 -2.26792
upperback -1.67771 2.26134 -0.925649
thorax -3.4869 1.16721 0.18006
lowerneck -0.773013 -3.97286 -6.29425
upperneck 5.40759 -5.40285 4.95511
head 2.20529 -2.71612 2.57742
rclavicle 5.55898e-015 -7.442e-015
rhumerus -70.0772 56.2577 -101.653
rradius 85.886
rwrist 2.29319
rhand -4.20667 15.1008
rfingers 7.12502
rthumb 21.5555 -13.7196
lclavicle 5.55898e-015 -7.442e-015
lhumerus -60.0568 -56.2158 87.3753
lradius 96.0562
lwrist -4.75092
lhand -9.63971 23.1178
lfingers 7.12502
lthumb 16.3306 52.4502
rfemur -5.25294 5.44077 15.4328
rtibia 17.7016
rfoot -15.624 -16.795
rtoes -10.974
lfemur -0.218149 -4.0669 -22.3154
ltibia 10.4187
lfoot -15.0114 12.6772
ltoes -11.839
225
root -0.0228357 18.1398 -0.800346 4.32071 -2.30601 2.48741
lowerback 3.02317 1.75764 -2.24768
upperback -1.68684 2.21665 -0.883179
thorax -3.48159 1.14507 0.215905
lowerneck -0.791082 -3.97763 -6.40366
upperneck 5.48003 -5.41254 5.05068
head 2.24126 -2.72129 2.62928
rclavicle -1.23557e-014 1.05853e-014
rhumerus -68.8679 55.9922 -100.265
rradius 86.0244
rwrist 2.6002
rhand -5.03806 14.0608
rfingers 7.12502
rthumb 20.7568 -14.8491
lclavicle -1.23557e-014 1.05853e-014
lhumerus -58.4993 -55.6129 85.8845
lradius 96.1672
lwrist -5.518
lhand -10.5545 24.6478
lfingers 7.12502
lthumb 15.4496 54.0503
rfemur -5.27967 5.43163 15.5003
rtibia 17.591
rfoot -15.5563 -16.9078
rtoes -11.1174
lfemur -0.2612 -4.112 -22.2265
ltibia 10.2734
lfoot -14.9688 12.6201
ltoes -11.6414
